<svg width="745" height="272" viewBox="0 0 745 272" fill="none" xmlns="http://www.w3.org/2000/svg">
<rect width="745" height="272" fill="#FCFCFC"/>
<path d="M610.67 210.545V220H609.359L604.553 213.066H604.465V220H603.039V210.545H604.359L609.169 217.489H609.257V210.545H610.67ZM615.367 220.143C614.702 220.143 614.122 219.991 613.626 219.686C613.131 219.381 612.746 218.955 612.472 218.407C612.198 217.859 612.061 217.219 612.061 216.487C612.061 215.751 612.198 215.108 612.472 214.557C612.746 214.006 613.131 213.578 613.626 213.274C614.122 212.969 614.702 212.817 615.367 212.817C616.031 212.817 616.612 212.969 617.107 213.274C617.603 213.578 617.987 214.006 618.261 214.557C618.535 215.108 618.672 215.751 618.672 216.487C618.672 217.219 618.535 217.859 618.261 218.407C617.987 218.955 617.603 219.381 617.107 219.686C616.612 219.991 616.031 220.143 615.367 220.143ZM615.371 218.984C615.802 218.984 616.159 218.871 616.442 218.643C616.725 218.415 616.935 218.112 617.07 217.733C617.209 217.355 617.278 216.938 617.278 216.482C617.278 216.03 617.209 215.614 617.07 215.236C616.935 214.854 616.725 214.548 616.442 214.317C616.159 214.086 615.802 213.971 615.371 213.971C614.937 213.971 614.577 214.086 614.291 214.317C614.008 214.548 613.797 214.854 613.659 215.236C613.523 215.614 613.455 216.03 613.455 216.482C613.455 216.938 613.523 217.355 613.659 217.733C613.797 218.112 614.008 218.415 614.291 218.643C614.577 218.871 614.937 218.984 615.371 218.984ZM624.671 220L622.584 212.909H624.01L625.4 218.116H625.469L626.863 212.909H628.29L629.675 218.093H629.744L631.124 212.909H632.551L630.469 220H629.061L627.62 214.88H627.514L626.074 220H624.671ZM635.664 220.157C635.215 220.157 634.809 220.074 634.446 219.908C634.082 219.738 633.795 219.494 633.582 219.174C633.373 218.854 633.268 218.461 633.268 217.996C633.268 217.596 633.345 217.267 633.499 217.009C633.653 216.75 633.861 216.545 634.122 216.395C634.384 216.244 634.676 216.13 635 216.053C635.323 215.976 635.652 215.917 635.988 215.877C636.412 215.828 636.757 215.788 637.022 215.757C637.286 215.724 637.479 215.67 637.599 215.596C637.719 215.522 637.779 215.402 637.779 215.236V215.203C637.779 214.8 637.665 214.488 637.437 214.266C637.212 214.045 636.877 213.934 636.431 213.934C635.966 213.934 635.6 214.037 635.332 214.243C635.067 214.446 634.884 214.673 634.783 214.922L633.485 214.626C633.639 214.196 633.864 213.848 634.159 213.583C634.458 213.315 634.801 213.121 635.189 213.001C635.577 212.878 635.984 212.817 636.412 212.817C636.695 212.817 636.995 212.851 637.312 212.918C637.633 212.983 637.931 213.103 638.208 213.278C638.488 213.454 638.717 213.705 638.896 214.031C639.074 214.354 639.164 214.774 639.164 215.291V220H637.816V219.031H637.76C637.671 219.209 637.537 219.384 637.359 219.557C637.18 219.729 636.951 219.872 636.671 219.986C636.391 220.1 636.055 220.157 635.664 220.157ZM635.964 219.049C636.346 219.049 636.672 218.974 636.943 218.823C637.217 218.672 637.425 218.475 637.566 218.232C637.711 217.986 637.783 217.723 637.783 217.442V216.528C637.734 216.578 637.639 216.624 637.497 216.667C637.359 216.707 637.2 216.742 637.022 216.773C636.843 216.801 636.669 216.827 636.5 216.852C636.331 216.873 636.189 216.892 636.075 216.907C635.807 216.941 635.563 216.998 635.341 217.078C635.123 217.158 634.947 217.273 634.815 217.424C634.686 217.572 634.621 217.769 634.621 218.015C634.621 218.357 634.747 218.615 635 218.79C635.252 218.963 635.574 219.049 635.964 219.049ZM646.056 214.64L644.805 214.862C644.752 214.702 644.669 214.549 644.555 214.405C644.445 214.26 644.294 214.142 644.103 214.049C643.912 213.957 643.674 213.911 643.387 213.911C642.997 213.911 642.67 213.999 642.409 214.174C642.147 214.346 642.016 214.569 642.016 214.843C642.016 215.08 642.104 215.271 642.279 215.416C642.455 215.56 642.738 215.679 643.129 215.771L644.255 216.03C644.908 216.181 645.394 216.413 645.714 216.727C646.034 217.041 646.194 217.449 646.194 217.95C646.194 218.375 646.071 218.754 645.825 219.086C645.582 219.415 645.242 219.674 644.805 219.862C644.371 220.049 643.868 220.143 643.295 220.143C642.501 220.143 641.853 219.974 641.352 219.635C640.85 219.294 640.542 218.809 640.428 218.181L641.762 217.978C641.846 218.326 642.016 218.589 642.275 218.767C642.533 218.943 642.87 219.031 643.286 219.031C643.738 219.031 644.1 218.937 644.371 218.749C644.642 218.558 644.777 218.326 644.777 218.052C644.777 217.83 644.694 217.644 644.528 217.493C644.365 217.342 644.114 217.229 643.775 217.152L642.575 216.888C641.913 216.738 641.424 216.498 641.107 216.168C640.793 215.839 640.636 215.422 640.636 214.917C640.636 214.499 640.753 214.132 640.987 213.819C641.221 213.505 641.544 213.26 641.956 213.085C642.369 212.906 642.841 212.817 643.374 212.817C644.14 212.817 644.743 212.983 645.183 213.315C645.623 213.645 645.914 214.086 646.056 214.64ZM650.762 212.909V214.017H646.889V212.909H650.762ZM647.927 211.21H649.308V217.918C649.308 218.186 649.348 218.387 649.428 218.523C649.508 218.655 649.611 218.746 649.737 218.795C649.866 218.841 650.006 218.864 650.157 218.864C650.268 218.864 650.365 218.857 650.448 218.841C650.531 218.826 650.596 218.814 650.642 218.804L650.891 219.945C650.811 219.975 650.697 220.006 650.55 220.037C650.402 220.071 650.217 220.089 649.996 220.092C649.632 220.098 649.294 220.034 648.98 219.898C648.666 219.763 648.412 219.554 648.218 219.271C648.024 218.987 647.927 218.632 647.927 218.204V211.21ZM655.009 220.143C654.31 220.143 653.708 219.994 653.204 219.695C652.702 219.394 652.314 218.971 652.04 218.426C651.77 217.878 651.634 217.236 651.634 216.501C651.634 215.774 651.77 215.134 652.04 214.58C652.314 214.026 652.696 213.594 653.185 213.283C653.678 212.972 654.253 212.817 654.912 212.817C655.312 212.817 655.7 212.883 656.075 213.015C656.451 213.148 656.788 213.355 657.086 213.638C657.385 213.922 657.62 214.289 657.792 214.742C657.965 215.191 658.051 215.737 658.051 216.381V216.87H652.414V215.836H656.698C656.698 215.473 656.625 215.151 656.477 214.871C656.329 214.588 656.121 214.365 655.854 214.202C655.589 214.039 655.278 213.957 654.921 213.957C654.533 213.957 654.195 214.052 653.905 214.243C653.619 214.431 653.398 214.677 653.241 214.982C653.087 215.283 653.01 215.611 653.01 215.965V216.773C653.01 217.247 653.093 217.65 653.259 217.983C653.428 218.315 653.664 218.569 653.965 218.744C654.267 218.917 654.619 219.003 655.023 219.003C655.284 219.003 655.523 218.966 655.738 218.892C655.954 218.815 656.14 218.701 656.297 218.55C656.454 218.4 656.574 218.213 656.657 217.992L657.963 218.227C657.859 218.612 657.671 218.949 657.4 219.238C657.132 219.525 656.795 219.748 656.389 219.908C655.986 220.065 655.526 220.143 655.009 220.143Z" fill="#989898"/>
<path d="M53.804 128V118.545H57.174C57.9065 118.545 58.5143 118.672 58.9975 118.924C59.4838 119.176 59.847 119.526 60.087 119.972C60.3271 120.415 60.4471 120.928 60.4471 121.509C60.4471 122.088 60.3255 122.597 60.0824 123.037C59.8423 123.474 59.4792 123.814 58.9929 124.058C58.5097 124.301 57.9019 124.422 57.1694 124.422H54.6165V123.194H57.0401C57.5018 123.194 57.8773 123.128 58.1666 122.996C58.4589 122.863 58.6728 122.671 58.8082 122.419C58.9437 122.166 59.0114 121.863 59.0114 121.509C59.0114 121.152 58.9421 120.843 58.8036 120.581C58.6682 120.32 58.4543 120.12 58.1619 119.981C57.8726 119.84 57.4925 119.769 57.0217 119.769H55.2305V128H53.804ZM58.4712 123.734L60.8072 128H59.1822L56.8924 123.734H58.4712ZM63.8757 128.157C63.4263 128.157 63.0201 128.074 62.6569 127.908C62.2937 127.738 62.006 127.494 61.7936 127.174C61.5843 126.854 61.4797 126.461 61.4797 125.996C61.4797 125.596 61.5566 125.267 61.7105 125.009C61.8644 124.75 62.0722 124.545 62.3338 124.395C62.5954 124.244 62.8877 124.13 63.2109 124.053C63.534 123.976 63.8633 123.917 64.1988 123.877C64.6235 123.828 64.9682 123.788 65.2329 123.757C65.4976 123.724 65.6899 123.67 65.81 123.596C65.93 123.522 65.99 123.402 65.99 123.236V123.203C65.99 122.8 65.8761 122.488 65.6484 122.266C65.4237 122.045 65.0883 121.934 64.642 121.934C64.1773 121.934 63.811 122.037 63.5433 122.243C63.2786 122.446 63.0955 122.673 62.9939 122.922L61.6967 122.626C61.8506 122.196 62.0752 121.848 62.3707 121.583C62.6692 121.315 63.0124 121.121 63.4002 121.001C63.7879 120.878 64.1957 120.817 64.6235 120.817C64.9067 120.817 65.2067 120.851 65.5237 120.918C65.8438 120.983 66.1423 121.103 66.4193 121.278C66.6994 121.454 66.9287 121.705 67.1072 122.031C67.2857 122.354 67.3749 122.774 67.3749 123.291V128H66.0269V127.031H65.9715C65.8823 127.209 65.7484 127.384 65.5699 127.557C65.3914 127.729 65.1621 127.872 64.882 127.986C64.602 128.1 64.2665 128.157 63.8757 128.157ZM64.1757 127.049C64.5574 127.049 64.8836 126.974 65.1544 126.823C65.4283 126.672 65.6361 126.475 65.7776 126.232C65.9223 125.986 65.9946 125.723 65.9946 125.442V124.528C65.9454 124.578 65.85 124.624 65.7084 124.667C65.5699 124.707 65.4114 124.742 65.2329 124.773C65.0544 124.801 64.8805 124.827 64.7112 124.852C64.542 124.873 64.4004 124.892 64.2865 124.907C64.0188 124.941 63.7741 124.998 63.5525 125.078C63.334 125.158 63.1586 125.273 63.0262 125.424C62.897 125.572 62.8323 125.769 62.8323 126.015C62.8323 126.357 62.9585 126.615 63.2109 126.79C63.4633 126.963 63.7849 127.049 64.1757 127.049ZM70.4907 128L68.4041 120.909H69.8306L71.2201 126.116H71.2894L72.6836 120.909H74.1101L75.495 126.093H75.5643L76.9446 120.909H78.3711L76.289 128H74.881L73.4407 122.88H73.3345L71.8942 128H70.4907ZM82.6014 128V120.909H83.9264V122.063H84.0141C84.1618 121.672 84.4034 121.368 84.7389 121.149C85.0743 120.928 85.476 120.817 85.9438 120.817C86.4177 120.817 86.8147 120.928 87.1348 121.149C87.458 121.371 87.6965 121.675 87.8504 122.063H87.9242C88.0935 121.685 88.3628 121.383 88.7321 121.158C89.1014 120.931 89.5415 120.817 90.0524 120.817C90.6957 120.817 91.2204 121.018 91.6266 121.422C92.036 121.825 92.2406 122.433 92.2406 123.245V128H90.8603V123.374C90.8603 122.894 90.7295 122.546 90.4679 122.331C90.2063 122.116 89.8939 122.008 89.5308 122.008C89.0814 122.008 88.7321 122.146 88.4828 122.423C88.2335 122.697 88.1089 123.05 88.1089 123.48V128H86.7332V123.287C86.7332 122.902 86.6131 122.593 86.3731 122.359C86.133 122.125 85.8207 122.008 85.4359 122.008C85.1743 122.008 84.9327 122.077 84.7112 122.216C84.4926 122.351 84.3157 122.54 84.1803 122.783C84.0479 123.027 83.9818 123.308 83.9818 123.628V128H82.6014ZM95.8943 128.157C95.4449 128.157 95.0387 128.074 94.6755 127.908C94.3123 127.738 94.0246 127.494 93.8122 127.174C93.6029 126.854 93.4983 126.461 93.4983 125.996C93.4983 125.596 93.5752 125.267 93.7291 125.009C93.883 124.75 94.0907 124.545 94.3523 124.395C94.6139 124.244 94.9063 124.13 95.2295 124.053C95.5526 123.976 95.8819 123.917 96.2174 123.877C96.6421 123.828 96.9868 123.788 97.2515 123.757C97.5162 123.724 97.7085 123.67 97.8286 123.596C97.9486 123.522 98.0086 123.402 98.0086 123.236V123.203C98.0086 122.8 97.8947 122.488 97.667 122.266C97.4423 122.045 97.1068 121.934 96.6606 121.934C96.1959 121.934 95.8296 122.037 95.5619 122.243C95.2972 122.446 95.1141 122.673 95.0125 122.922L93.7153 122.626C93.8692 122.196 94.0938 121.848 94.3893 121.583C94.6878 121.315 95.031 121.121 95.4188 121.001C95.8065 120.878 96.2143 120.817 96.6421 120.817C96.9253 120.817 97.2253 120.851 97.5423 120.918C97.8624 120.983 98.1609 121.103 98.4379 121.278C98.718 121.454 98.9473 121.705 99.1258 122.031C99.3043 122.354 99.3935 122.774 99.3935 123.291V128H98.0455V127.031H97.9901C97.9009 127.209 97.767 127.384 97.5885 127.557C97.41 127.729 97.1807 127.872 96.9006 127.986C96.6206 128.1 96.2851 128.157 95.8943 128.157ZM96.1943 127.049C96.576 127.049 96.9022 126.974 97.173 126.823C97.4469 126.672 97.6547 126.475 97.7962 126.232C97.9409 125.986 98.0132 125.723 98.0132 125.442V124.528C97.964 124.578 97.8686 124.624 97.727 124.667C97.5885 124.707 97.43 124.742 97.2515 124.773C97.073 124.801 96.8991 124.827 96.7298 124.852C96.5606 124.873 96.419 124.892 96.3051 124.907C96.0374 124.941 95.7927 124.998 95.5711 125.078C95.3526 125.158 95.1772 125.273 95.0448 125.424C94.9156 125.572 94.8509 125.769 94.8509 126.015C94.8509 126.357 94.9771 126.615 95.2295 126.79C95.4818 126.963 95.8035 127.049 96.1943 127.049ZM104.282 120.909V122.017L100.409 122.017V120.909L104.282 120.909ZM101.448 119.21L102.828 119.21V125.918C102.828 126.186 102.868 126.387 102.948 126.523C103.028 126.655 103.131 126.746 103.257 126.795C103.386 126.841 103.527 126.864 103.677 126.864C103.788 126.864 103.885 126.857 103.968 126.841C104.051 126.826 104.116 126.814 104.162 126.804L104.411 127.945C104.331 127.975 104.217 128.006 104.07 128.037C103.922 128.071 103.737 128.089 103.516 128.092C103.153 128.098 102.814 128.034 102.5 127.898C102.186 127.763 101.932 127.554 101.738 127.271C101.544 126.987 101.448 126.632 101.448 126.204V119.21ZM108.529 128.143C107.83 128.143 107.229 127.994 106.724 127.695C106.222 127.394 105.834 126.971 105.561 126.426C105.29 125.878 105.154 125.236 105.154 124.501C105.154 123.774 105.29 123.134 105.561 122.58C105.834 122.026 106.216 121.594 106.705 121.283C107.198 120.972 107.773 120.817 108.432 120.817C108.832 120.817 109.22 120.883 109.595 121.015C109.971 121.148 110.308 121.355 110.606 121.638C110.905 121.922 111.14 122.289 111.313 122.742C111.485 123.191 111.571 123.737 111.571 124.381V124.87L105.934 124.87V123.836L110.219 123.836C110.219 123.473 110.145 123.151 109.997 122.871C109.849 122.588 109.641 122.365 109.374 122.202C109.109 122.039 108.798 121.957 108.441 121.957C108.053 121.957 107.715 122.052 107.426 122.243C107.139 122.431 106.918 122.677 106.761 122.982C106.607 123.283 106.53 123.611 106.53 123.965V124.773C106.53 125.247 106.613 125.65 106.779 125.983C106.949 126.315 107.184 126.569 107.486 126.744C107.787 126.917 108.14 127.003 108.543 127.003C108.804 127.003 109.043 126.966 109.258 126.892C109.474 126.815 109.66 126.701 109.817 126.55C109.974 126.4 110.094 126.213 110.177 125.992L111.483 126.227C111.379 126.612 111.191 126.949 110.92 127.238C110.652 127.525 110.315 127.748 109.909 127.908C109.506 128.065 109.046 128.143 108.529 128.143ZM112.843 128V120.909H114.177V122.036H114.251C114.38 121.654 114.608 121.354 114.934 121.135C115.263 120.914 115.636 120.803 116.051 120.803C116.137 120.803 116.239 120.806 116.356 120.812C116.476 120.818 116.57 120.826 116.637 120.835V122.156C116.582 122.14 116.484 122.123 116.342 122.105C116.2 122.083 116.059 122.072 115.917 122.072C115.591 122.072 115.3 122.142 115.045 122.28C114.792 122.416 114.592 122.605 114.445 122.848C114.297 123.088 114.223 123.362 114.223 123.67V128H112.843ZM117.572 128V120.909H118.952V128H117.572ZM118.269 119.815C118.029 119.815 117.823 119.735 117.65 119.575C117.481 119.412 117.397 119.218 117.397 118.993C117.397 118.766 117.481 118.572 117.65 118.412C117.823 118.248 118.029 118.167 118.269 118.167C118.509 118.167 118.714 118.248 118.883 118.412C119.055 118.572 119.142 118.766 119.142 118.993C119.142 119.218 119.055 119.412 118.883 119.575C118.714 119.735 118.509 119.815 118.269 119.815ZM122.613 128.157C122.163 128.157 121.757 128.074 121.394 127.908C121.031 127.738 120.743 127.494 120.531 127.174C120.321 126.854 120.217 126.461 120.217 125.996C120.217 125.596 120.294 125.267 120.448 125.009C120.602 124.75 120.809 124.545 121.071 124.395C121.333 124.244 121.625 124.13 121.948 124.053C122.271 123.976 122.6 123.917 122.936 123.877C123.361 123.828 123.705 123.788 123.97 123.757C124.235 123.724 124.427 123.67 124.547 123.596C124.667 123.522 124.727 123.402 124.727 123.236V123.203C124.727 122.8 124.613 122.488 124.386 122.266C124.161 122.045 123.825 121.934 123.379 121.934C122.914 121.934 122.548 122.037 122.28 122.243C122.016 122.446 121.833 122.673 121.731 122.922L120.434 122.626C120.588 122.196 120.812 121.848 121.108 121.583C121.406 121.315 121.75 121.121 122.137 121.001C122.525 120.878 122.933 120.817 123.361 120.817C123.644 120.817 123.944 120.851 124.261 120.918C124.581 120.983 124.879 121.103 125.156 121.278C125.437 121.454 125.666 121.705 125.844 122.031C126.023 122.354 126.112 122.774 126.112 123.291V128H124.764V127.031H124.709C124.619 127.209 124.486 127.384 124.307 127.557C124.129 127.729 123.899 127.872 123.619 127.986C123.339 128.1 123.004 128.157 122.613 128.157ZM122.913 127.049C123.295 127.049 123.621 126.974 123.892 126.823C124.165 126.672 124.373 126.475 124.515 126.232C124.659 125.986 124.732 125.723 124.732 125.442V124.528C124.683 124.578 124.587 124.624 124.446 124.667C124.307 124.707 124.149 124.742 123.97 124.773C123.792 124.801 123.618 124.827 123.448 124.852C123.279 124.873 123.138 124.892 123.024 124.907C122.756 124.941 122.511 124.998 122.29 125.078C122.071 125.158 121.896 125.273 121.763 125.424C121.634 125.572 121.569 125.769 121.569 126.015C121.569 126.357 121.696 126.615 121.948 126.79C122.2 126.963 122.522 127.049 122.913 127.049ZM129.071 118.545V128H127.691V118.545H129.071Z" fill="#383838"/>
<path d="M297 99L285.457 98.711L290.978 108.852L297 99ZM155 124C196.995 124 250.027 123.815 289.537 104.201L288.648 102.41C249.637 121.775 197.116 122 155 122L155 124Z" fill="#383838"/>
<path d="M586 215C541.05 215 483.851 214.639 444 178" stroke="#989898" stroke-dasharray="2 2"/>
<g clip-path="url(#clip0_2046_12257)">
<path d="M365.606 73.0986C379.523 73.8602 392.842 79.008 403.654 87.8044C414.465 96.6007 422.214 108.594 425.791 122.065" stroke="#FCFCFC" stroke-width="4"/>
<path d="M403.654 87.8044L403.022 88.5801L403.654 87.8044ZM425.791 122.065L428.038 110.739L417.105 114.456L425.791 122.065ZM365.552 74.0971C379.258 74.8472 392.375 79.917 403.022 88.5801L404.285 87.0287C393.309 78.0991 379.789 72.8732 365.661 72.1001L365.552 74.0971ZM403.022 88.5801C411.365 95.3679 417.857 104.089 421.97 113.928L423.816 113.157C419.575 103.015 412.884 94.0254 404.285 87.0287L403.022 88.5801Z" fill="black"/>
<path d="M365.497 75.0956L367.494 75.2049L367.713 71.2109L365.716 71.1016L365.497 75.0956ZM302.304 115.927C307.177 103.32 315.915 92.5797 327.267 85.2448L325.096 81.8851C313.035 89.6785 303.75 101.09 298.573 114.485L302.304 115.927ZM327.267 85.2448C338.619 77.91 352.002 74.3572 365.497 75.0956L365.716 71.1016C351.377 70.317 337.158 74.0918 325.096 81.8851L327.267 85.2448Z" fill="#FCFCFC"/>
<path d="M326.182 83.565L326.724 84.4049L326.182 83.565ZM365.606 73.0986L355.529 67.4614L355.686 79.0073L365.606 73.0986ZM301.371 115.566C306.32 102.763 315.195 91.8544 326.724 84.4049L325.639 82.7251C313.755 90.4038 304.607 101.648 299.506 114.845L301.371 115.566ZM326.724 84.4049C335.758 78.5679 346.058 75.0892 356.687 74.2175L356.524 72.2241C345.568 73.1227 334.951 76.7084 325.639 82.7251L326.724 84.4049Z" fill="black"/>
<path d="M302.304 115.927L303.025 114.061L299.294 112.619L298.573 114.485L302.304 115.927ZM321.609 188.644C311.125 180.115 303.611 168.485 300.143 155.422L296.277 156.448C299.961 170.328 307.945 182.684 319.084 191.747L321.609 188.644ZM300.143 155.422C296.675 142.359 297.431 128.533 302.304 115.927L298.573 114.485C293.396 127.879 292.592 142.569 296.277 156.448L300.143 155.422Z" fill="#FCFCFC"/>
<path d="M298.21 155.935L299.176 155.678L298.21 155.935ZM300.438 115.206L291.963 123.048L302.992 126.467L300.438 115.206ZM320.978 189.42C310.33 180.757 302.698 168.946 299.176 155.678L297.243 156.192C300.874 169.867 308.74 182.042 319.716 190.971L320.978 189.42ZM299.176 155.678C296.417 145.283 296.291 134.412 298.746 124.034L296.8 123.574C294.269 134.271 294.399 145.476 297.243 156.192L299.176 155.678Z" fill="black"/>
<path d="M358.394 204.901L358.503 202.904L358.394 204.901ZM321.609 188.644L320.057 187.382L317.533 190.485L319.084 191.747L321.609 188.644ZM396.733 192.755C385.381 200.09 371.998 203.643 358.503 202.904L358.284 206.898C372.623 207.683 386.842 203.908 398.904 196.115L396.733 192.755ZM358.503 202.904C345.008 202.166 332.093 197.174 321.609 188.644L319.084 191.747C330.223 200.81 343.946 206.114 358.284 206.898L358.503 202.904Z" fill="#FCFCFC"/>
<path d="M358.394 204.901L358.448 203.903L358.394 204.901ZM320.347 190.196L325.186 200.68L331.846 191.247L320.347 190.196ZM397.276 193.595C385.746 201.045 372.154 204.653 358.448 203.903L358.339 205.9C372.467 206.673 386.477 202.954 398.361 195.275L397.276 193.595ZM358.448 203.903C347.709 203.315 337.331 200.075 328.22 194.533L327.181 196.242C336.572 201.955 347.269 205.294 358.339 205.9L358.448 203.903Z" fill="black"/>
<path d="M423.562 162.794L425.427 163.515L423.562 162.794ZM396.733 192.755L395.053 193.841L397.224 197.2L398.904 196.115L396.733 192.755ZM423.858 122.578C427.325 135.641 426.569 149.467 421.696 162.073L425.427 163.515C430.604 150.121 431.408 135.431 427.724 121.552L423.858 122.578ZM421.696 162.073C416.824 174.68 408.085 185.42 396.733 192.755L398.904 196.115C410.965 188.322 420.25 176.91 425.427 163.515L421.696 162.073Z" fill="#FCFCFC"/>
<path d="M423.562 162.794L424.495 163.155L423.562 162.794ZM397.819 194.435L409.285 193.072L402.372 183.824L397.819 194.435ZM424.824 122.322C428.346 135.589 427.578 149.63 422.629 162.434L424.495 163.155C429.596 149.957 430.388 135.484 426.757 121.808L424.824 122.322ZM422.629 162.434C418.751 172.466 412.463 181.335 404.377 188.287L405.681 189.804C414.016 182.637 420.498 173.496 424.495 163.155L422.629 162.434Z" fill="black"/>
<path d="M425.791 122.065C425.917 122.542 426.039 123.021 426.154 123.5" stroke="white" stroke-width="2"/>
</g>
<path d="M425.024 167.883C429.712 167.648 433.323 163.657 433.088 158.968C432.853 154.28 428.862 150.669 424.173 150.904C419.485 151.139 415.874 155.13 416.109 159.819C416.344 164.507 420.335 168.118 425.024 167.883Z" fill="#A92DA3" stroke="white" stroke-width="2"/>
<path d="M299.88 168.144C304.569 167.91 308.179 163.918 307.945 159.23C307.71 154.541 303.718 150.931 299.03 151.166C294.341 151.401 290.731 155.392 290.966 160.08C291.201 164.769 295.192 168.379 299.88 168.144Z" fill="#00D315" stroke="white" stroke-width="2"/>
<path d="M362.207 213.082C366.895 212.848 370.506 208.856 370.271 204.168C370.036 199.479 366.045 195.869 361.356 196.104C356.668 196.339 353.057 200.33 353.292 205.018C353.527 209.707 357.518 213.317 362.207 213.082Z" fill="#00A1D3" stroke="white" stroke-width="2"/>
<path d="M323.194 93.885C327.883 93.6502 331.493 89.6589 331.258 84.9704C331.023 80.2819 327.032 76.6715 322.344 76.9063C317.655 77.1412 314.045 81.1324 314.279 85.821C314.514 90.5095 318.506 94.1199 323.194 93.885Z" fill="#F8CA38" stroke="white" stroke-width="2"/>
<path d="M401.297 93.9775C405.985 93.7426 409.595 89.7514 409.361 85.0629C409.126 80.3743 405.135 76.7639 400.446 76.9988C395.757 77.2337 392.147 81.2249 392.382 85.9134C392.617 90.602 396.608 94.2124 401.297 93.9775Z" fill="#FF68A8" stroke="white" stroke-width="2"/>
<circle cx="143.5" cy="122.5" r="7.5" fill="#FD4D2E"/>
<path d="M341.278 128.438H338.79C338.744 128.116 338.652 127.83 338.511 127.58C338.371 127.326 338.191 127.11 337.972 126.932C337.752 126.754 337.498 126.617 337.21 126.523C336.926 126.428 336.617 126.381 336.284 126.381C335.682 126.381 335.157 126.53 334.71 126.83C334.263 127.125 333.917 127.557 333.67 128.125C333.424 128.689 333.301 129.375 333.301 130.182C333.301 131.011 333.424 131.708 333.67 132.273C333.92 132.837 334.269 133.263 334.716 133.551C335.163 133.839 335.68 133.983 336.267 133.983C336.597 133.983 336.902 133.939 337.182 133.852C337.466 133.765 337.718 133.638 337.938 133.472C338.157 133.301 338.339 133.095 338.483 132.852C338.631 132.61 338.733 132.333 338.79 132.023L341.278 132.034C341.214 132.568 341.053 133.083 340.795 133.58C340.542 134.072 340.199 134.513 339.767 134.903C339.339 135.29 338.828 135.597 338.233 135.824C337.642 136.047 336.973 136.159 336.227 136.159C335.189 136.159 334.261 135.924 333.443 135.455C332.629 134.985 331.985 134.305 331.511 133.415C331.042 132.525 330.807 131.447 330.807 130.182C330.807 128.913 331.045 127.833 331.523 126.943C332 126.053 332.648 125.375 333.466 124.909C334.284 124.439 335.205 124.205 336.227 124.205C336.902 124.205 337.527 124.299 338.102 124.489C338.682 124.678 339.195 124.955 339.642 125.318C340.089 125.678 340.453 126.119 340.733 126.642C341.017 127.165 341.199 127.763 341.278 128.438ZM342.677 136V127.273H345.098V136H342.677ZM343.893 126.148C343.533 126.148 343.225 126.028 342.967 125.79C342.713 125.547 342.586 125.258 342.586 124.92C342.586 124.587 342.713 124.301 342.967 124.062C343.225 123.82 343.533 123.699 343.893 123.699C344.253 123.699 344.56 123.82 344.814 124.062C345.071 124.301 345.2 124.587 345.2 124.92C345.2 125.258 345.071 125.547 344.814 125.79C344.56 126.028 344.253 126.148 343.893 126.148ZM346.717 136V127.273H349.063V128.795H349.154C349.313 128.254 349.58 127.845 349.955 127.568C350.33 127.288 350.762 127.148 351.251 127.148C351.372 127.148 351.503 127.155 351.643 127.17C351.783 127.186 351.906 127.206 352.012 127.233V129.381C351.898 129.347 351.741 129.316 351.54 129.29C351.34 129.263 351.156 129.25 350.989 129.25C350.633 129.25 350.315 129.328 350.035 129.483C349.758 129.634 349.539 129.847 349.376 130.119C349.217 130.392 349.137 130.706 349.137 131.062V136H346.717ZM356.48 136.17C355.586 136.17 354.817 135.981 354.174 135.602C353.533 135.22 353.041 134.689 352.696 134.011C352.355 133.333 352.185 132.553 352.185 131.67C352.185 130.777 352.357 129.992 352.702 129.318C353.05 128.64 353.545 128.112 354.185 127.733C354.825 127.35 355.586 127.159 356.469 127.159C357.23 127.159 357.897 127.297 358.469 127.574C359.041 127.85 359.494 128.239 359.827 128.739C360.16 129.239 360.344 129.826 360.378 130.5H358.094C358.03 130.064 357.859 129.714 357.583 129.449C357.31 129.18 356.952 129.045 356.509 129.045C356.134 129.045 355.806 129.148 355.526 129.352C355.249 129.553 355.033 129.847 354.878 130.233C354.723 130.619 354.645 131.087 354.645 131.636C354.645 132.193 354.721 132.667 354.872 133.057C355.028 133.447 355.245 133.744 355.526 133.949C355.806 134.153 356.134 134.256 356.509 134.256C356.785 134.256 357.033 134.199 357.253 134.085C357.477 133.972 357.66 133.807 357.804 133.591C357.952 133.371 358.049 133.108 358.094 132.801H360.378C360.34 133.468 360.158 134.055 359.833 134.562C359.511 135.066 359.066 135.46 358.497 135.744C357.929 136.028 357.257 136.17 356.48 136.17ZM367.204 132.284V127.273H369.625V136H367.301V134.415H367.21C367.013 134.926 366.685 135.337 366.227 135.648C365.773 135.958 365.218 136.114 364.562 136.114C363.979 136.114 363.466 135.981 363.023 135.716C362.579 135.451 362.233 135.074 361.983 134.585C361.737 134.097 361.612 133.511 361.608 132.83V127.273H364.028V132.398C364.032 132.913 364.17 133.32 364.443 133.619C364.716 133.919 365.081 134.068 365.54 134.068C365.831 134.068 366.104 134.002 366.358 133.869C366.612 133.733 366.816 133.532 366.971 133.267C367.131 133.002 367.208 132.674 367.204 132.284ZM373.661 124.364V136H371.241V124.364H373.661ZM377.769 136.165C377.212 136.165 376.716 136.068 376.28 135.875C375.845 135.678 375.5 135.388 375.246 135.006C374.996 134.619 374.871 134.138 374.871 133.562C374.871 133.078 374.96 132.67 375.138 132.341C375.316 132.011 375.559 131.746 375.866 131.545C376.172 131.345 376.521 131.193 376.911 131.091C377.305 130.989 377.718 130.917 378.15 130.875C378.657 130.822 379.066 130.773 379.377 130.727C379.687 130.678 379.913 130.606 380.053 130.511C380.193 130.417 380.263 130.277 380.263 130.091V130.057C380.263 129.697 380.15 129.419 379.922 129.222C379.699 129.025 379.381 128.926 378.968 128.926C378.532 128.926 378.186 129.023 377.928 129.216C377.67 129.405 377.5 129.644 377.417 129.932L375.178 129.75C375.292 129.22 375.515 128.761 375.848 128.375C376.182 127.985 376.612 127.686 377.138 127.477C377.669 127.265 378.282 127.159 378.979 127.159C379.464 127.159 379.928 127.216 380.371 127.33C380.818 127.443 381.214 127.619 381.559 127.858C381.907 128.097 382.182 128.403 382.383 128.778C382.583 129.15 382.684 129.595 382.684 130.114V136H380.388V134.79H380.32C380.18 135.062 379.992 135.303 379.758 135.511C379.523 135.716 379.241 135.877 378.911 135.994C378.581 136.108 378.201 136.165 377.769 136.165ZM378.462 134.494C378.818 134.494 379.133 134.424 379.405 134.284C379.678 134.14 379.892 133.947 380.047 133.705C380.203 133.462 380.28 133.187 380.28 132.881V131.955C380.205 132.004 380.1 132.049 379.968 132.091C379.839 132.129 379.693 132.165 379.53 132.199C379.367 132.229 379.205 132.258 379.042 132.284C378.879 132.307 378.731 132.328 378.598 132.347C378.314 132.388 378.066 132.455 377.854 132.545C377.642 132.636 377.477 132.759 377.36 132.915C377.242 133.066 377.184 133.256 377.184 133.483C377.184 133.812 377.303 134.064 377.542 134.239C377.784 134.409 378.091 134.494 378.462 134.494ZM384.242 136V127.273H386.588V128.795H386.679C386.838 128.254 387.105 127.845 387.48 127.568C387.855 127.288 388.287 127.148 388.776 127.148C388.897 127.148 389.028 127.155 389.168 127.17C389.308 127.186 389.431 127.206 389.537 127.233V129.381C389.423 129.347 389.266 129.316 389.065 129.29C388.865 129.263 388.681 129.25 388.514 129.25C388.158 129.25 387.84 129.328 387.56 129.483C387.283 129.634 387.064 129.847 386.901 130.119C386.742 130.392 386.662 130.706 386.662 131.062V136H384.242ZM331.011 152V140.364H338.852V142.392H333.472V145.165H338.449V147.193H333.472V149.972H338.875V152H331.011ZM344.386 152.17C343.492 152.17 342.723 151.981 342.079 151.602C341.439 151.22 340.947 150.689 340.602 150.011C340.261 149.333 340.091 148.553 340.091 147.67C340.091 146.777 340.263 145.992 340.608 145.318C340.956 144.64 341.45 144.112 342.091 143.733C342.731 143.35 343.492 143.159 344.375 143.159C345.136 143.159 345.803 143.297 346.375 143.574C346.947 143.85 347.399 144.239 347.733 144.739C348.066 145.239 348.25 145.826 348.284 146.5H346C345.935 146.064 345.765 145.714 345.488 145.449C345.216 145.18 344.858 145.045 344.414 145.045C344.039 145.045 343.712 145.148 343.431 145.352C343.155 145.553 342.939 145.847 342.784 146.233C342.628 146.619 342.551 147.087 342.551 147.636C342.551 148.193 342.626 148.667 342.778 149.057C342.933 149.447 343.151 149.744 343.431 149.949C343.712 150.153 344.039 150.256 344.414 150.256C344.691 150.256 344.939 150.199 345.159 150.085C345.382 149.972 345.566 149.807 345.71 149.591C345.858 149.371 345.954 149.108 346 148.801H348.284C348.246 149.468 348.064 150.055 347.738 150.562C347.416 151.066 346.971 151.46 346.403 151.744C345.835 152.028 345.162 152.17 344.386 152.17ZM353.457 152.17C352.574 152.17 351.811 151.983 351.167 151.608C350.527 151.229 350.032 150.703 349.684 150.028C349.335 149.35 349.161 148.564 349.161 147.67C349.161 146.769 349.335 145.981 349.684 145.307C350.032 144.629 350.527 144.102 351.167 143.727C351.811 143.348 352.574 143.159 353.457 143.159C354.339 143.159 355.101 143.348 355.741 143.727C356.385 144.102 356.881 144.629 357.229 145.307C357.578 145.981 357.752 146.769 357.752 147.67C357.752 148.564 357.578 149.35 357.229 150.028C356.881 150.703 356.385 151.229 355.741 151.608C355.101 151.983 354.339 152.17 353.457 152.17ZM353.468 150.295C353.869 150.295 354.205 150.182 354.474 149.955C354.743 149.723 354.945 149.409 355.082 149.011C355.222 148.614 355.292 148.161 355.292 147.653C355.292 147.146 355.222 146.693 355.082 146.295C354.945 145.898 354.743 145.583 354.474 145.352C354.205 145.121 353.869 145.006 353.468 145.006C353.063 145.006 352.722 145.121 352.445 145.352C352.173 145.583 351.966 145.898 351.826 146.295C351.69 146.693 351.621 147.146 351.621 147.653C351.621 148.161 351.69 148.614 351.826 149.011C351.966 149.409 352.173 149.723 352.445 149.955C352.722 150.182 353.063 150.295 353.468 150.295ZM361.426 146.955V152H359.006V143.273H361.313V144.812H361.415C361.608 144.305 361.932 143.903 362.387 143.608C362.841 143.309 363.392 143.159 364.04 143.159C364.646 143.159 365.174 143.292 365.625 143.557C366.076 143.822 366.426 144.201 366.676 144.693C366.926 145.182 367.051 145.765 367.051 146.443V152H364.631V146.875C364.635 146.341 364.498 145.924 364.222 145.625C363.945 145.322 363.565 145.17 363.08 145.17C362.754 145.17 362.466 145.241 362.216 145.381C361.97 145.521 361.777 145.725 361.637 145.994C361.5 146.259 361.43 146.58 361.426 146.955ZM372.582 152.17C371.7 152.17 370.936 151.983 370.292 151.608C369.652 151.229 369.158 150.703 368.809 150.028C368.461 149.35 368.287 148.564 368.287 147.67C368.287 146.769 368.461 145.981 368.809 145.307C369.158 144.629 369.652 144.102 370.292 143.727C370.936 143.348 371.7 143.159 372.582 143.159C373.465 143.159 374.226 143.348 374.866 143.727C375.51 144.102 376.006 144.629 376.355 145.307C376.703 145.981 376.878 146.769 376.878 147.67C376.878 148.564 376.703 149.35 376.355 150.028C376.006 150.703 375.51 151.229 374.866 151.608C374.226 151.983 373.465 152.17 372.582 152.17ZM372.594 150.295C372.995 150.295 373.33 150.182 373.599 149.955C373.868 149.723 374.071 149.409 374.207 149.011C374.347 148.614 374.417 148.161 374.417 147.653C374.417 147.146 374.347 146.693 374.207 146.295C374.071 145.898 373.868 145.583 373.599 145.352C373.33 145.121 372.995 145.006 372.594 145.006C372.188 145.006 371.847 145.121 371.571 145.352C371.298 145.583 371.092 145.898 370.952 146.295C370.815 146.693 370.747 147.146 370.747 147.653C370.747 148.161 370.815 148.614 370.952 149.011C371.092 149.409 371.298 149.723 371.571 149.955C371.847 150.182 372.188 150.295 372.594 150.295ZM378.132 152V143.273H380.438V144.812H380.541C380.722 144.301 381.025 143.898 381.45 143.602C381.874 143.307 382.382 143.159 382.972 143.159C383.571 143.159 384.08 143.309 384.501 143.608C384.921 143.903 385.202 144.305 385.342 144.812H385.433C385.611 144.312 385.933 143.913 386.399 143.614C386.868 143.311 387.423 143.159 388.063 143.159C388.878 143.159 389.539 143.419 390.046 143.938C390.558 144.453 390.813 145.184 390.813 146.131V152H388.399V146.608C388.399 146.123 388.27 145.759 388.012 145.517C387.755 145.275 387.433 145.153 387.046 145.153C386.607 145.153 386.264 145.294 386.018 145.574C385.772 145.85 385.649 146.216 385.649 146.67V152H383.302V146.557C383.302 146.129 383.179 145.788 382.933 145.534C382.69 145.28 382.37 145.153 381.972 145.153C381.704 145.153 381.461 145.222 381.245 145.358C381.033 145.491 380.864 145.678 380.739 145.92C380.614 146.159 380.552 146.439 380.552 146.761V152H378.132ZM393.587 155.273C393.28 155.273 392.992 155.248 392.723 155.199C392.458 155.153 392.239 155.095 392.064 155.023L392.61 153.216C392.894 153.303 393.15 153.35 393.377 153.358C393.608 153.366 393.807 153.313 393.973 153.199C394.144 153.085 394.282 152.892 394.388 152.619L394.53 152.25L391.4 143.273H393.945L395.752 149.682H395.843L397.667 143.273H400.229L396.837 152.943C396.674 153.413 396.453 153.822 396.172 154.17C395.896 154.523 395.545 154.794 395.121 154.983C394.697 155.176 394.186 155.273 393.587 155.273Z" fill="#383838"/>
<path d="M340.682 221.62H339.241C339.186 221.312 339.083 221.041 338.932 220.808C338.781 220.574 338.596 220.375 338.378 220.212C338.159 220.049 337.915 219.926 337.644 219.843C337.376 219.76 337.091 219.718 336.79 219.718C336.245 219.718 335.757 219.855 335.326 220.129C334.899 220.403 334.56 220.804 334.311 221.334C334.065 221.863 333.941 222.509 333.941 223.273C333.941 224.042 334.065 224.692 334.311 225.221C334.56 225.75 334.9 226.15 335.331 226.421C335.762 226.692 336.247 226.827 336.785 226.827C337.084 226.827 337.367 226.787 337.635 226.707C337.905 226.624 338.15 226.503 338.369 226.343C338.587 226.183 338.772 225.987 338.923 225.756C339.077 225.522 339.183 225.255 339.241 224.953L340.682 224.958C340.605 225.422 340.455 225.85 340.234 226.241C340.015 226.629 339.734 226.964 339.389 227.248C339.047 227.528 338.656 227.745 338.216 227.898C337.776 228.052 337.296 228.129 336.776 228.129C335.957 228.129 335.228 227.935 334.588 227.548C333.948 227.157 333.443 226.598 333.074 225.872C332.707 225.145 332.524 224.279 332.524 223.273C332.524 222.263 332.709 221.397 333.078 220.674C333.448 219.947 333.952 219.39 334.592 219.002C335.233 218.612 335.96 218.416 336.776 218.416C337.278 218.416 337.745 218.489 338.179 218.633C338.616 218.775 339.009 218.984 339.357 219.261C339.704 219.535 339.992 219.87 340.22 220.267C340.448 220.661 340.602 221.112 340.682 221.62ZM345.005 228.143C344.34 228.143 343.76 227.991 343.264 227.686C342.769 227.381 342.384 226.955 342.11 226.407C341.836 225.859 341.699 225.219 341.699 224.487C341.699 223.751 341.836 223.108 342.11 222.557C342.384 222.006 342.769 221.578 343.264 221.274C343.76 220.969 344.34 220.817 345.005 220.817C345.669 220.817 346.249 220.969 346.745 221.274C347.24 221.578 347.625 222.006 347.899 222.557C348.173 223.108 348.31 223.751 348.31 224.487C348.31 225.219 348.173 225.859 347.899 226.407C347.625 226.955 347.24 227.381 346.745 227.686C346.249 227.991 345.669 228.143 345.005 228.143ZM345.009 226.984C345.44 226.984 345.797 226.871 346.08 226.643C346.363 226.415 346.573 226.112 346.708 225.733C346.847 225.355 346.916 224.938 346.916 224.482C346.916 224.03 346.847 223.614 346.708 223.236C346.573 222.854 346.363 222.548 346.08 222.317C345.797 222.086 345.44 221.971 345.009 221.971C344.575 221.971 344.215 222.086 343.929 222.317C343.646 222.548 343.435 222.854 343.296 223.236C343.161 223.614 343.093 224.03 343.093 224.482C343.093 224.938 343.161 225.355 343.296 225.733C343.435 226.112 343.646 226.415 343.929 226.643C344.215 226.871 344.575 226.984 345.009 226.984ZM350.971 218.545V228H349.591V218.545H350.971ZM353.948 218.545V228H352.568V218.545H353.948ZM358.601 228.143C357.903 228.143 357.301 227.994 356.796 227.695C356.295 227.394 355.907 226.971 355.633 226.426C355.362 225.878 355.227 225.236 355.227 224.501C355.227 223.774 355.362 223.134 355.633 222.58C355.907 222.026 356.289 221.594 356.778 221.283C357.27 220.972 357.846 220.817 358.504 220.817C358.905 220.817 359.292 220.883 359.668 221.015C360.043 221.148 360.38 221.355 360.679 221.638C360.977 221.922 361.213 222.289 361.385 222.742C361.557 223.191 361.644 223.737 361.644 224.381V224.87H356.007V223.836H360.291C360.291 223.473 360.217 223.151 360.069 222.871C359.922 222.588 359.714 222.365 359.446 222.202C359.182 222.039 358.871 221.957 358.514 221.957C358.126 221.957 357.787 222.052 357.498 222.243C357.212 222.431 356.99 222.677 356.833 222.982C356.679 223.283 356.602 223.611 356.602 223.965V224.773C356.602 225.247 356.686 225.65 356.852 225.983C357.021 226.315 357.256 226.569 357.558 226.744C357.86 226.917 358.212 227.003 358.615 227.003C358.877 227.003 359.115 226.966 359.331 226.892C359.546 226.815 359.732 226.701 359.889 226.55C360.046 226.4 360.166 226.213 360.249 225.992L361.556 226.227C361.451 226.612 361.264 226.949 360.993 227.238C360.725 227.525 360.388 227.748 359.982 227.908C359.579 228.065 359.118 228.143 358.601 228.143ZM365.902 228.143C365.216 228.143 364.625 227.988 364.129 227.677C363.637 227.363 363.258 226.931 362.994 226.38C362.729 225.829 362.597 225.198 362.597 224.487C362.597 223.767 362.732 223.131 363.003 222.58C363.274 222.026 363.655 221.594 364.148 221.283C364.64 220.972 365.22 220.817 365.888 220.817C366.427 220.817 366.907 220.917 367.329 221.117C367.75 221.314 368.09 221.591 368.349 221.948C368.61 222.305 368.766 222.722 368.815 223.199H367.472C367.398 222.866 367.229 222.58 366.964 222.34C366.702 222.1 366.351 221.98 365.911 221.98C365.527 221.98 365.19 222.082 364.9 222.285C364.614 222.485 364.391 222.771 364.231 223.143C364.071 223.513 363.991 223.95 363.991 224.455C363.991 224.972 364.069 225.418 364.226 225.793C364.383 226.169 364.605 226.46 364.891 226.666C365.18 226.872 365.52 226.975 365.911 226.975C366.173 226.975 366.41 226.927 366.622 226.832C366.838 226.734 367.018 226.594 367.162 226.412C367.31 226.23 367.413 226.012 367.472 225.756H368.815C368.766 226.215 368.617 226.624 368.367 226.984C368.118 227.344 367.784 227.628 367.365 227.834C366.95 228.04 366.462 228.143 365.902 228.143ZM373.341 220.909V222.017H369.468V220.909H373.341ZM370.507 219.21H371.887V225.918C371.887 226.186 371.927 226.387 372.007 226.523C372.087 226.655 372.19 226.746 372.316 226.795C372.446 226.841 372.586 226.864 372.736 226.864C372.847 226.864 372.944 226.857 373.027 226.841C373.11 226.826 373.175 226.814 373.221 226.804L373.47 227.945C373.39 227.975 373.277 228.006 373.129 228.037C372.981 228.071 372.796 228.089 372.575 228.092C372.212 228.098 371.873 228.034 371.559 227.898C371.245 227.763 370.991 227.554 370.797 227.271C370.604 226.987 370.507 226.632 370.507 226.204V219.21ZM374.608 228V220.909H375.988V228H374.608ZM375.305 219.815C375.065 219.815 374.859 219.735 374.687 219.575C374.517 219.412 374.433 219.218 374.433 218.993C374.433 218.766 374.517 218.572 374.687 218.412C374.859 218.248 375.065 218.167 375.305 218.167C375.545 218.167 375.75 218.248 375.919 218.412C376.091 218.572 376.178 218.766 376.178 218.993C376.178 219.218 376.091 219.412 375.919 219.575C375.75 219.735 375.545 219.815 375.305 219.815ZM380.572 228.143C379.907 228.143 379.327 227.991 378.832 227.686C378.336 227.381 377.952 226.955 377.678 226.407C377.404 225.859 377.267 225.219 377.267 224.487C377.267 223.751 377.404 223.108 377.678 222.557C377.952 222.006 378.336 221.578 378.832 221.274C379.327 220.969 379.907 220.817 380.572 220.817C381.237 220.817 381.817 220.969 382.313 221.274C382.808 221.578 383.193 222.006 383.467 222.557C383.741 223.108 383.878 223.751 383.878 224.487C383.878 225.219 383.741 225.859 383.467 226.407C383.193 226.955 382.808 227.381 382.313 227.686C381.817 227.991 381.237 228.143 380.572 228.143ZM380.577 226.984C381.008 226.984 381.365 226.871 381.648 226.643C381.931 226.415 382.14 226.112 382.276 225.733C382.414 225.355 382.483 224.938 382.483 224.482C382.483 224.03 382.414 223.614 382.276 223.236C382.14 222.854 381.931 222.548 381.648 222.317C381.365 222.086 381.008 221.971 380.577 221.971C380.143 221.971 379.783 222.086 379.497 222.317C379.213 222.548 379.003 222.854 378.864 223.236C378.729 223.614 378.661 224.03 378.661 224.482C378.661 224.938 378.729 225.355 378.864 225.733C379.003 226.112 379.213 226.415 379.497 226.643C379.783 226.871 380.143 226.984 380.577 226.984ZM386.539 223.79V228H385.158V220.909H386.483V222.063H386.571C386.734 221.688 386.99 221.386 387.337 221.158C387.688 220.931 388.13 220.817 388.662 220.817C389.145 220.817 389.569 220.918 389.932 221.121C390.295 221.321 390.577 221.62 390.777 222.017C390.977 222.414 391.077 222.905 391.077 223.49V228H389.696V223.656C389.696 223.142 389.563 222.74 389.295 222.451C389.027 222.159 388.659 222.012 388.191 222.012C387.871 222.012 387.587 222.082 387.337 222.22C387.091 222.359 386.896 222.562 386.751 222.83C386.609 223.094 386.539 223.414 386.539 223.79Z" fill="#383838"/>
<path d="M235.682 160.62H234.241C234.186 160.312 234.083 160.041 233.932 159.808C233.781 159.574 233.596 159.375 233.378 159.212C233.159 159.049 232.915 158.926 232.644 158.843C232.376 158.76 232.091 158.718 231.79 158.718C231.245 158.718 230.757 158.855 230.326 159.129C229.899 159.403 229.56 159.804 229.311 160.334C229.065 160.863 228.941 161.509 228.941 162.273C228.941 163.042 229.065 163.692 229.311 164.221C229.56 164.75 229.9 165.15 230.331 165.421C230.762 165.692 231.247 165.827 231.785 165.827C232.084 165.827 232.367 165.787 232.635 165.707C232.905 165.624 233.15 165.503 233.369 165.343C233.587 165.183 233.772 164.987 233.923 164.756C234.077 164.522 234.183 164.255 234.241 163.953L235.682 163.958C235.605 164.422 235.455 164.85 235.234 165.241C235.015 165.629 234.734 165.964 234.389 166.248C234.047 166.528 233.656 166.745 233.216 166.898C232.776 167.052 232.296 167.129 231.776 167.129C230.957 167.129 230.228 166.935 229.588 166.548C228.948 166.157 228.443 165.598 228.074 164.872C227.707 164.145 227.524 163.279 227.524 162.273C227.524 161.263 227.709 160.397 228.078 159.674C228.448 158.947 228.952 158.39 229.592 158.002C230.233 157.612 230.96 157.416 231.776 157.416C232.278 157.416 232.745 157.489 233.179 157.633C233.616 157.775 234.009 157.984 234.357 158.261C234.704 158.535 234.992 158.87 235.22 159.267C235.448 159.661 235.602 160.112 235.682 160.62ZM240.005 167.143C239.34 167.143 238.76 166.991 238.264 166.686C237.769 166.381 237.384 165.955 237.11 165.407C236.836 164.859 236.699 164.219 236.699 163.487C236.699 162.751 236.836 162.108 237.11 161.557C237.384 161.006 237.769 160.578 238.264 160.274C238.76 159.969 239.34 159.817 240.005 159.817C240.669 159.817 241.249 159.969 241.745 160.274C242.24 160.578 242.625 161.006 242.899 161.557C243.173 162.108 243.31 162.751 243.31 163.487C243.31 164.219 243.173 164.859 242.899 165.407C242.625 165.955 242.24 166.381 241.745 166.686C241.249 166.991 240.669 167.143 240.005 167.143ZM240.009 165.984C240.44 165.984 240.797 165.871 241.08 165.643C241.363 165.415 241.573 165.112 241.708 164.733C241.847 164.355 241.916 163.938 241.916 163.482C241.916 163.03 241.847 162.614 241.708 162.236C241.573 161.854 241.363 161.548 241.08 161.317C240.797 161.086 240.44 160.971 240.009 160.971C239.575 160.971 239.215 161.086 238.929 161.317C238.646 161.548 238.435 161.854 238.296 162.236C238.161 162.614 238.093 163.03 238.093 163.482C238.093 163.938 238.161 164.355 238.296 164.733C238.435 165.112 238.646 165.415 238.929 165.643C239.215 165.871 239.575 165.984 240.009 165.984ZM245.971 157.545V167H244.591V157.545H245.971ZM248.948 157.545V167H247.568V157.545H248.948ZM253.601 167.143C252.903 167.143 252.301 166.994 251.796 166.695C251.295 166.394 250.907 165.971 250.633 165.426C250.362 164.878 250.227 164.236 250.227 163.501C250.227 162.774 250.362 162.134 250.633 161.58C250.907 161.026 251.289 160.594 251.778 160.283C252.27 159.972 252.846 159.817 253.504 159.817C253.905 159.817 254.292 159.883 254.668 160.015C255.043 160.148 255.38 160.355 255.679 160.638C255.977 160.922 256.213 161.289 256.385 161.742C256.557 162.191 256.644 162.737 256.644 163.381V163.87H251.007V162.836H255.291C255.291 162.473 255.217 162.151 255.069 161.871C254.922 161.588 254.714 161.365 254.446 161.202C254.182 161.039 253.871 160.957 253.514 160.957C253.126 160.957 252.787 161.052 252.498 161.243C252.212 161.431 251.99 161.677 251.833 161.982C251.679 162.283 251.602 162.611 251.602 162.965V163.773C251.602 164.247 251.686 164.65 251.852 164.983C252.021 165.315 252.256 165.569 252.558 165.744C252.86 165.917 253.212 166.003 253.615 166.003C253.877 166.003 254.115 165.966 254.331 165.892C254.546 165.815 254.732 165.701 254.889 165.55C255.046 165.4 255.166 165.213 255.249 164.992L256.556 165.227C256.451 165.612 256.264 165.949 255.993 166.238C255.725 166.525 255.388 166.748 254.982 166.908C254.579 167.065 254.118 167.143 253.601 167.143ZM260.902 167.143C260.216 167.143 259.625 166.988 259.129 166.677C258.637 166.363 258.258 165.931 257.994 165.38C257.729 164.829 257.597 164.198 257.597 163.487C257.597 162.767 257.732 162.131 258.003 161.58C258.274 161.026 258.655 160.594 259.148 160.283C259.64 159.972 260.22 159.817 260.888 159.817C261.427 159.817 261.907 159.917 262.329 160.117C262.75 160.314 263.09 160.591 263.349 160.948C263.61 161.305 263.766 161.722 263.815 162.199H262.472C262.398 161.866 262.229 161.58 261.964 161.34C261.702 161.1 261.351 160.98 260.911 160.98C260.527 160.98 260.19 161.082 259.9 161.285C259.614 161.485 259.391 161.771 259.231 162.143C259.071 162.513 258.991 162.95 258.991 163.455C258.991 163.972 259.069 164.418 259.226 164.793C259.383 165.169 259.605 165.46 259.891 165.666C260.18 165.872 260.52 165.975 260.911 165.975C261.173 165.975 261.41 165.927 261.622 165.832C261.838 165.734 262.018 165.594 262.162 165.412C262.31 165.23 262.413 165.012 262.472 164.756H263.815C263.766 165.215 263.617 165.624 263.367 165.984C263.118 166.344 262.784 166.628 262.365 166.834C261.95 167.04 261.462 167.143 260.902 167.143ZM268.341 159.909V161.017H264.468V159.909H268.341ZM265.507 158.21H266.887V164.918C266.887 165.186 266.927 165.387 267.007 165.523C267.087 165.655 267.19 165.746 267.316 165.795C267.446 165.841 267.586 165.864 267.736 165.864C267.847 165.864 267.944 165.857 268.027 165.841C268.11 165.826 268.175 165.814 268.221 165.804L268.47 166.945C268.39 166.975 268.277 167.006 268.129 167.037C267.981 167.071 267.796 167.089 267.575 167.092C267.212 167.098 266.873 167.034 266.559 166.898C266.245 166.763 265.991 166.554 265.797 166.271C265.604 165.987 265.507 165.632 265.507 165.204V158.21ZM269.608 167V159.909H270.988V167H269.608ZM270.305 158.815C270.065 158.815 269.859 158.735 269.687 158.575C269.517 158.412 269.433 158.218 269.433 157.993C269.433 157.766 269.517 157.572 269.687 157.412C269.859 157.248 270.065 157.167 270.305 157.167C270.545 157.167 270.75 157.248 270.919 157.412C271.091 157.572 271.178 157.766 271.178 157.993C271.178 158.218 271.091 158.412 270.919 158.575C270.75 158.735 270.545 158.815 270.305 158.815ZM275.572 167.143C274.907 167.143 274.327 166.991 273.832 166.686C273.336 166.381 272.952 165.955 272.678 165.407C272.404 164.859 272.267 164.219 272.267 163.487C272.267 162.751 272.404 162.108 272.678 161.557C272.952 161.006 273.336 160.578 273.832 160.274C274.327 159.969 274.907 159.817 275.572 159.817C276.237 159.817 276.817 159.969 277.313 160.274C277.808 160.578 278.193 161.006 278.467 161.557C278.741 162.108 278.878 162.751 278.878 163.487C278.878 164.219 278.741 164.859 278.467 165.407C278.193 165.955 277.808 166.381 277.313 166.686C276.817 166.991 276.237 167.143 275.572 167.143ZM275.577 165.984C276.008 165.984 276.365 165.871 276.648 165.643C276.931 165.415 277.14 165.112 277.276 164.733C277.414 164.355 277.483 163.938 277.483 163.482C277.483 163.03 277.414 162.614 277.276 162.236C277.14 161.854 276.931 161.548 276.648 161.317C276.365 161.086 276.008 160.971 275.577 160.971C275.143 160.971 274.783 161.086 274.497 161.317C274.213 161.548 274.003 161.854 273.864 162.236C273.729 162.614 273.661 163.03 273.661 163.482C273.661 163.938 273.729 164.355 273.864 164.733C274.003 165.112 274.213 165.415 274.497 165.643C274.783 165.871 275.143 165.984 275.577 165.984ZM281.539 162.79V167H280.158V159.909H281.483V161.063H281.571C281.734 160.688 281.99 160.386 282.337 160.158C282.688 159.931 283.13 159.817 283.662 159.817C284.145 159.817 284.569 159.918 284.932 160.121C285.295 160.321 285.577 160.62 285.777 161.017C285.977 161.414 286.077 161.905 286.077 162.49V167H284.696V162.656C284.696 162.142 284.563 161.74 284.295 161.451C284.027 161.159 283.659 161.012 283.191 161.012C282.871 161.012 282.587 161.082 282.337 161.22C282.091 161.359 281.896 161.562 281.751 161.83C281.609 162.094 281.539 162.414 281.539 162.79Z" fill="#383838"/>
<path d="M445.119 157.545L446.55 157.545L446.55 163.764C446.55 164.426 446.394 165.012 446.083 165.523C445.773 166.031 445.336 166.431 444.772 166.723C444.209 167.012 443.549 167.157 442.792 167.157C442.038 167.157 441.379 167.012 440.816 166.723C440.253 166.431 439.816 166.031 439.505 165.523C439.194 165.012 439.039 164.426 439.039 163.764L439.039 157.545L440.465 157.545L440.465 163.648C440.465 164.076 440.559 164.456 440.747 164.789C440.938 165.121 441.207 165.383 441.555 165.574C441.902 165.761 442.315 165.855 442.792 165.855C443.272 165.855 443.686 165.761 444.034 165.574C444.385 165.383 444.652 165.121 444.837 164.789C445.025 164.456 445.119 164.076 445.119 163.648L445.119 157.545ZM453.566 161.64L452.315 161.862C452.263 161.702 452.18 161.549 452.066 161.405C451.955 161.26 451.804 161.142 451.614 161.049C451.423 160.957 451.184 160.911 450.898 160.911C450.507 160.911 450.181 160.999 449.919 161.174C449.658 161.346 449.527 161.569 449.527 161.843C449.527 162.08 449.615 162.271 449.79 162.416C449.966 162.56 450.249 162.679 450.64 162.771L451.766 163.03C452.418 163.181 452.905 163.413 453.225 163.727C453.545 164.041 453.705 164.449 453.705 164.95C453.705 165.375 453.582 165.754 453.336 166.086C453.092 166.415 452.752 166.674 452.315 166.862C451.881 167.049 451.378 167.143 450.806 167.143C450.012 167.143 449.364 166.974 448.862 166.635C448.361 166.294 448.053 165.809 447.939 165.181L449.273 164.978C449.356 165.326 449.527 165.589 449.786 165.767C450.044 165.943 450.381 166.031 450.797 166.031C451.249 166.031 451.611 165.937 451.881 165.749C452.152 165.558 452.288 165.326 452.288 165.052C452.288 164.83 452.205 164.644 452.038 164.493C451.875 164.342 451.624 164.229 451.286 164.152L450.086 163.888C449.424 163.738 448.935 163.498 448.618 163.168C448.304 162.839 448.147 162.422 448.147 161.917C448.147 161.499 448.264 161.132 448.498 160.819C448.731 160.505 449.055 160.26 449.467 160.085C449.879 159.906 450.352 159.817 450.884 159.817C451.651 159.817 452.254 159.983 452.694 160.315C453.134 160.645 453.425 161.086 453.566 161.64ZM458.019 167.143C457.32 167.143 456.718 166.994 456.214 166.695C455.712 166.394 455.324 165.971 455.05 165.426C454.779 164.878 454.644 164.236 454.644 163.501C454.644 162.774 454.779 162.134 455.05 161.58C455.324 161.026 455.706 160.594 456.195 160.283C456.688 159.972 457.263 159.817 457.922 159.817C458.322 159.817 458.71 159.883 459.085 160.015C459.461 160.148 459.798 160.355 460.096 160.638C460.395 160.922 460.63 161.289 460.802 161.742C460.975 162.191 461.061 162.737 461.061 163.381L461.061 163.87L455.424 163.87L455.424 162.836L459.708 162.836C459.708 162.473 459.634 162.151 459.487 161.871C459.339 161.588 459.131 161.365 458.864 161.202C458.599 161.039 458.288 160.957 457.931 160.957C457.543 160.957 457.205 161.052 456.915 161.243C456.629 161.431 456.408 161.677 456.251 161.982C456.097 162.283 456.02 162.611 456.02 162.965L456.02 163.773C456.02 164.247 456.103 164.65 456.269 164.983C456.438 165.315 456.674 165.569 456.975 165.744C457.277 165.917 457.629 166.003 458.033 166.003C458.294 166.003 458.533 165.966 458.748 165.892C458.964 165.815 459.15 165.701 459.307 165.55C459.464 165.4 459.584 165.213 459.667 164.992L460.973 165.227C460.869 165.612 460.681 165.949 460.41 166.238C460.142 166.525 459.805 166.748 459.399 166.908C458.996 167.065 458.536 167.143 458.019 167.143ZM465.933 157.102L462.886 168.422L461.654 168.422L464.701 157.102L465.933 157.102ZM466.957 167L466.957 157.545L470.327 157.545C471.059 157.545 471.667 157.672 472.15 157.924C472.637 158.176 473 158.526 473.24 158.972C473.48 159.415 473.6 159.928 473.6 160.509C473.6 161.088 473.478 161.597 473.235 162.037C472.995 162.474 472.632 162.814 472.146 163.058C471.662 163.301 471.055 163.422 470.322 163.422L467.769 163.422L467.769 162.194L470.193 162.194C470.655 162.194 471.03 162.128 471.319 161.996C471.612 161.863 471.826 161.671 471.961 161.419C472.096 161.166 472.164 160.863 472.164 160.509C472.164 160.152 472.095 159.843 471.956 159.581C471.821 159.32 471.607 159.12 471.315 158.981C471.025 158.84 470.645 158.769 470.174 158.769L468.383 158.769L468.383 167L466.957 167ZM471.624 162.734L473.96 167L472.335 167L470.045 162.734L471.624 162.734ZM477.932 167.143C477.233 167.143 476.632 166.994 476.127 166.695C475.625 166.394 475.238 165.971 474.964 165.426C474.693 164.878 474.557 164.236 474.557 163.501C474.557 162.774 474.693 162.134 474.964 161.58C475.238 161.026 475.619 160.594 476.109 160.283C476.601 159.972 477.177 159.817 477.835 159.817C478.235 159.817 478.623 159.883 478.998 160.015C479.374 160.148 479.711 160.355 480.009 160.638C480.308 160.922 480.543 161.289 480.716 161.742C480.888 162.191 480.974 162.737 480.974 163.381L480.974 163.87L475.338 163.87L475.338 162.836L479.622 162.836C479.622 162.473 479.548 162.151 479.4 161.871C479.252 161.588 479.045 161.365 478.777 161.202C478.512 161.039 478.201 160.957 477.844 160.957C477.457 160.957 477.118 161.052 476.829 161.243C476.543 161.431 476.321 161.677 476.164 161.982C476.01 162.283 475.933 162.611 475.933 162.965L475.933 163.773C475.933 164.247 476.016 164.65 476.182 164.983C476.352 165.315 476.587 165.569 476.889 165.744C477.19 165.917 477.543 166.003 477.946 166.003C478.208 166.003 478.446 165.966 478.661 165.892C478.877 165.815 479.063 165.701 479.22 165.55C479.377 165.4 479.497 165.213 479.58 164.992L480.887 165.227C480.782 165.612 480.594 165.949 480.323 166.238C480.056 166.525 479.719 166.748 479.312 166.908C478.909 167.065 478.449 167.143 477.932 167.143ZM486.738 164.059L486.738 159.909L488.123 159.909L488.123 167L486.765 167L486.765 165.772L486.692 165.772C486.528 166.151 486.267 166.466 485.907 166.718C485.55 166.968 485.105 167.092 484.573 167.092C484.117 167.092 483.714 166.992 483.363 166.792C483.015 166.589 482.741 166.289 482.541 165.892C482.344 165.495 482.246 165.004 482.246 164.419L482.246 159.909L483.626 159.909L483.626 164.253C483.626 164.736 483.76 165.121 484.028 165.407C484.296 165.694 484.643 165.837 485.071 165.837C485.33 165.837 485.587 165.772 485.842 165.643C486.101 165.513 486.314 165.318 486.484 165.056C486.656 164.795 486.741 164.462 486.738 164.059ZM495.031 161.64L493.78 161.862C493.727 161.702 493.644 161.549 493.53 161.405C493.42 161.26 493.269 161.142 493.078 161.049C492.887 160.957 492.649 160.911 492.363 160.911C491.972 160.911 491.645 160.999 491.384 161.174C491.122 161.346 490.991 161.569 490.991 161.843C490.991 162.08 491.079 162.271 491.255 162.416C491.43 162.56 491.713 162.679 492.104 162.771L493.23 163.03C493.883 163.181 494.369 163.413 494.689 163.727C495.009 164.041 495.169 164.449 495.169 164.95C495.169 165.375 495.046 165.754 494.8 166.086C494.557 166.415 494.217 166.674 493.78 166.862C493.346 167.049 492.843 167.143 492.27 167.143C491.476 167.143 490.828 166.974 490.327 166.635C489.825 166.294 489.517 165.809 489.403 165.181L490.738 164.978C490.821 165.326 490.991 165.589 491.25 165.767C491.508 165.943 491.845 166.031 492.261 166.031C492.713 166.031 493.075 165.937 493.346 165.749C493.617 165.558 493.752 165.326 493.752 165.052C493.752 164.83 493.669 164.644 493.503 164.493C493.34 164.342 493.089 164.229 492.75 164.152L491.55 163.888C490.888 163.738 490.399 163.498 490.082 163.168C489.768 162.839 489.611 162.422 489.611 161.917C489.611 161.499 489.728 161.132 489.962 160.819C490.196 160.505 490.519 160.26 490.931 160.085C491.344 159.906 491.816 159.817 492.349 159.817C493.115 159.817 493.718 159.983 494.158 160.315C494.598 160.645 494.889 161.086 495.031 161.64ZM499.483 167.143C498.784 167.143 498.183 166.994 497.678 166.695C497.176 166.394 496.789 165.971 496.515 165.426C496.244 164.878 496.108 164.236 496.108 163.501C496.108 162.774 496.244 162.134 496.515 161.58C496.789 161.026 497.17 160.594 497.66 160.283C498.152 159.972 498.728 159.817 499.386 159.817C499.786 159.817 500.174 159.883 500.55 160.015C500.925 160.148 501.262 160.355 501.561 160.638C501.859 160.922 502.095 161.289 502.267 161.742C502.439 162.191 502.525 162.737 502.525 163.381L502.525 163.87L496.889 163.87L496.889 162.836L501.173 162.836C501.173 162.473 501.099 162.151 500.951 161.871C500.803 161.588 500.596 161.365 500.328 161.202C500.063 161.039 499.752 160.957 499.395 160.957C499.008 160.957 498.669 161.052 498.38 161.243C498.094 161.431 497.872 161.677 497.715 161.982C497.561 162.284 497.484 162.611 497.484 162.965L497.484 163.773C497.484 164.247 497.567 164.65 497.733 164.983C497.903 165.315 498.138 165.569 498.44 165.744C498.741 165.917 499.094 166.003 499.497 166.003C499.759 166.003 499.997 165.966 500.213 165.892C500.428 165.815 500.614 165.701 500.771 165.55C500.928 165.4 501.048 165.213 501.131 164.992L502.438 165.227C502.333 165.612 502.145 165.949 501.874 166.238C501.607 166.525 501.27 166.748 500.863 166.908C500.46 167.065 500 167.143 499.483 167.143Z" fill="#383838"/>
<path d="M416.039 85V75.5455H419.409C420.144 75.5455 420.754 75.6793 421.237 75.9471C421.72 76.2148 422.082 76.5811 422.322 77.0458C422.562 77.5075 422.682 78.0276 422.682 78.6062C422.682 79.1879 422.56 79.7111 422.317 80.1758C422.077 80.6374 421.714 81.0037 421.228 81.2745C420.744 81.5423 420.137 81.6761 419.404 81.6761H417.087V80.4666H419.275C419.74 80.4666 420.117 80.3866 420.406 80.2266C420.695 80.0634 420.908 79.8419 421.043 79.5618C421.178 79.2817 421.246 78.9632 421.246 78.6062C421.246 78.2492 421.178 77.9322 421.043 77.6552C420.908 77.3782 420.694 77.1612 420.401 77.0043C420.112 76.8473 419.73 76.7688 419.256 76.7688H417.465V85H416.039ZM423.983 85V77.9091H425.318V79.0355H425.391C425.521 78.6539 425.748 78.3538 426.075 78.1353C426.404 77.9137 426.776 77.8029 427.192 77.8029C427.278 77.8029 427.38 77.806 427.496 77.8121C427.617 77.8183 427.71 77.826 427.778 77.8352V79.1555C427.723 79.1402 427.624 79.1232 427.483 79.1048C427.341 79.0832 427.199 79.0724 427.058 79.0724C426.732 79.0724 426.441 79.1417 426.185 79.2802C425.933 79.4156 425.733 79.6049 425.585 79.848C425.438 80.0881 425.364 80.362 425.364 80.6697V85H423.983ZM431.446 85.1431C430.781 85.1431 430.201 84.9908 429.705 84.6861C429.21 84.3814 428.825 83.9551 428.551 83.4073C428.277 82.8595 428.14 82.2193 428.14 81.4869C428.14 80.7513 428.277 80.1081 428.551 79.5572C428.825 79.0063 429.21 78.5785 429.705 78.2738C430.201 77.9691 430.781 77.8168 431.446 77.8168C432.11 77.8168 432.69 77.9691 433.186 78.2738C433.681 78.5785 434.066 79.0063 434.34 79.5572C434.614 80.1081 434.751 80.7513 434.751 81.4869C434.751 82.2193 434.614 82.8595 434.34 83.4073C434.066 83.9551 433.681 84.3814 433.186 84.6861C432.69 84.9908 432.11 85.1431 431.446 85.1431ZM431.45 83.9844C431.881 83.9844 432.238 83.8705 432.521 83.6428C432.804 83.415 433.014 83.1119 433.149 82.7333C433.288 82.3548 433.357 81.9377 433.357 81.4822C433.357 81.0298 433.288 80.6143 433.149 80.2358C433.014 79.8542 432.804 79.5479 432.521 79.3171C432.238 79.0863 431.881 78.9709 431.45 78.9709C431.016 78.9709 430.656 79.0863 430.37 79.3171C430.087 79.5479 429.876 79.8542 429.737 80.2358C429.602 80.6143 429.534 81.0298 429.534 81.4822C429.534 81.9377 429.602 82.3548 429.737 82.7333C429.876 83.1119 430.087 83.415 430.37 83.6428C430.656 83.8705 431.016 83.9844 431.45 83.9844ZM438.686 85.1385C438.114 85.1385 437.603 84.9923 437.154 84.6999C436.707 84.4045 436.356 83.9844 436.101 83.4396C435.849 82.8918 435.722 82.2347 435.722 81.4684C435.722 80.7021 435.85 80.0465 436.106 79.5018C436.364 78.957 436.718 78.54 437.167 78.2507C437.617 77.9614 438.126 77.8168 438.695 77.8168C439.136 77.8168 439.489 77.8906 439.757 78.0384C440.028 78.183 440.237 78.3523 440.385 78.5462C440.536 78.7401 440.653 78.9109 440.736 79.0586H440.819V75.5455H442.199V85H440.851V83.8967H440.736C440.653 84.0475 440.533 84.2198 440.376 84.4137C440.222 84.6076 440.01 84.7769 439.739 84.9215C439.468 85.0662 439.117 85.1385 438.686 85.1385ZM438.991 83.9613C439.388 83.9613 439.723 83.8567 439.997 83.6474C440.274 83.435 440.484 83.1411 440.625 82.7656C440.77 82.3902 440.842 81.9531 440.842 81.4545C440.842 80.9621 440.771 80.5312 440.63 80.1619C440.488 79.7926 440.28 79.5049 440.006 79.2987C439.733 79.0924 439.394 78.9893 438.991 78.9893C438.575 78.9893 438.229 79.0971 437.952 79.3125C437.675 79.5279 437.466 79.8219 437.324 80.1942C437.186 80.5666 437.117 80.9867 437.117 81.4545C437.117 81.9285 437.187 82.3548 437.329 82.7333C437.471 83.1119 437.68 83.4119 437.957 83.6335C438.237 83.852 438.582 83.9613 438.991 83.9613ZM448.401 82.0593V77.9091H449.786V85H448.429V83.772H448.355C448.192 84.1506 447.93 84.466 447.57 84.7184C447.213 84.9677 446.769 85.0923 446.236 85.0923C445.781 85.0923 445.377 84.9923 445.027 84.7923C444.679 84.5891 444.405 84.2891 444.205 83.892C444.008 83.495 443.909 83.0041 443.909 82.4194V77.9091H445.29V82.2532C445.29 82.7364 445.424 83.1211 445.691 83.4073C445.959 83.6935 446.307 83.8366 446.735 83.8366C446.993 83.8366 447.25 83.772 447.506 83.6428C447.764 83.5135 447.978 83.3181 448.147 83.0565C448.32 82.7949 448.404 82.4625 448.401 82.0593ZM454.368 85.1431C453.681 85.1431 453.09 84.9877 452.595 84.6768C452.103 84.3629 451.724 83.9305 451.459 83.3796C451.195 82.8287 451.062 82.1978 451.062 81.4869C451.062 80.7667 451.198 80.1312 451.469 79.5803C451.739 79.0263 452.121 78.5939 452.613 78.283C453.106 77.9722 453.686 77.8168 454.354 77.8168C454.892 77.8168 455.373 77.9168 455.794 78.1168C456.216 78.3138 456.556 78.5908 456.814 78.9478C457.076 79.3048 457.231 79.7218 457.281 80.1989H455.937C455.863 79.8665 455.694 79.5803 455.429 79.3402C455.168 79.1001 454.817 78.9801 454.377 78.9801C453.992 78.9801 453.655 79.0817 453.366 79.2848C453.08 79.4848 452.857 79.7711 452.697 80.1435C452.537 80.5128 452.456 80.9498 452.456 81.4545C452.456 81.9716 452.535 82.4179 452.692 82.7933C452.849 83.1688 453.07 83.4596 453.357 83.6658C453.646 83.872 453.986 83.9751 454.377 83.9751C454.639 83.9751 454.876 83.9274 455.088 83.832C455.303 83.7335 455.483 83.5935 455.628 83.4119C455.776 83.2304 455.879 83.0118 455.937 82.7564H457.281C457.231 83.215 457.082 83.6243 456.833 83.9844C456.584 84.3445 456.25 84.6276 455.831 84.8338C455.416 85.04 454.928 85.1431 454.368 85.1431ZM461.807 77.9091V79.017H457.934V77.9091L461.807 77.9091ZM458.972 76.2102H460.353V82.918C460.353 83.1857 460.393 83.3873 460.473 83.5227C460.553 83.6551 460.656 83.7459 460.782 83.7951C460.911 83.8413 461.051 83.8643 461.202 83.8643C461.313 83.8643 461.41 83.8567 461.493 83.8413C461.576 83.8259 461.641 83.8136 461.687 83.8043L461.936 84.9446C461.856 84.9754 461.742 85.0062 461.594 85.0369C461.447 85.0708 461.262 85.0893 461.04 85.0923C460.677 85.0985 460.339 85.0339 460.025 84.8984C459.711 84.763 459.457 84.5537 459.263 84.2706C459.069 83.9875 458.972 83.632 458.972 83.2042V76.2102ZM463.074 85V77.9091H464.454V85H463.074ZM463.771 76.815C463.531 76.815 463.325 76.735 463.152 76.5749C462.983 76.4118 462.898 76.2179 462.898 75.9933C462.898 75.7655 462.983 75.5716 463.152 75.4116C463.325 75.2485 463.531 75.1669 463.771 75.1669C464.011 75.1669 464.216 75.2485 464.385 75.4116C464.557 75.5716 464.643 75.7655 464.643 75.9933C464.643 76.2179 464.557 76.4118 464.385 76.5749C464.216 76.735 464.011 76.815 463.771 76.815ZM469.038 85.1431C468.373 85.1431 467.793 84.9908 467.297 84.6861C466.802 84.3814 466.417 83.9551 466.143 83.4073C465.869 82.8595 465.732 82.2193 465.732 81.4869C465.732 80.7513 465.869 80.1081 466.143 79.5572C466.417 79.0063 466.802 78.5785 467.297 78.2738C467.793 77.9691 468.373 77.8168 469.038 77.8168C469.703 77.8168 470.283 77.9691 470.778 78.2738C471.274 78.5785 471.659 79.0063 471.932 79.5572C472.206 80.1081 472.343 80.7513 472.343 81.4869C472.343 82.2193 472.206 82.8595 471.932 83.4073C471.659 83.9551 471.274 84.3814 470.778 84.6861C470.283 84.9908 469.703 85.1431 469.038 85.1431ZM469.043 83.9844C469.473 83.9844 469.83 83.8705 470.114 83.6428C470.397 83.415 470.606 83.1119 470.741 82.7333C470.88 82.3548 470.949 81.9377 470.949 81.4822C470.949 81.0298 470.88 80.6143 470.741 80.2358C470.606 79.8542 470.397 79.5479 470.114 79.3171C469.83 79.0863 469.473 78.9709 469.043 78.9709C468.609 78.9709 468.248 79.0863 467.962 79.3171C467.679 79.5479 467.468 79.8542 467.33 80.2358C467.194 80.6143 467.127 81.0298 467.127 81.4822C467.127 81.9377 467.194 82.3548 467.33 82.7333C467.468 83.1119 467.679 83.415 467.962 83.6428C468.248 83.8705 468.609 83.9844 469.043 83.9844ZM475.004 80.7898V85H473.624V77.9091H474.949V79.0632H475.037C475.2 78.6877 475.455 78.3861 475.803 78.1584C476.154 77.9306 476.596 77.8168 477.128 77.8168C477.611 77.8168 478.034 77.9183 478.397 78.1214C478.761 78.3215 479.042 78.62 479.242 79.017C479.442 79.4141 479.542 79.9049 479.542 80.4897V85H478.162V80.6559C478.162 80.1419 478.028 79.7403 477.76 79.451C477.493 79.1586 477.125 79.0124 476.657 79.0124C476.337 79.0124 476.052 79.0817 475.803 79.2202C475.557 79.3587 475.361 79.5618 475.217 79.8295C475.075 80.0942 475.004 80.4143 475.004 80.7898Z" fill="#383838"/>
<path d="M271.388 84L268.327 84L268.327 74.5455L271.485 74.5455C272.411 74.5455 273.207 74.7347 273.871 75.1133C274.536 75.4888 275.046 76.0289 275.399 76.7337C275.756 77.4354 275.935 78.2771 275.935 79.2589C275.935 80.2437 275.755 81.0901 275.395 81.7979C275.038 82.5058 274.521 83.0505 273.844 83.4322C273.167 83.8107 272.348 84 271.388 84ZM269.753 82.7536L271.309 82.7536C272.029 82.7536 272.628 82.6181 273.105 82.3473C273.582 82.0734 273.939 81.6779 274.176 81.1609C274.413 80.6407 274.532 80.0067 274.532 79.2589C274.532 78.5172 274.413 77.8878 274.176 77.3707C273.942 76.8537 273.593 76.4613 273.128 76.1935C272.663 75.9258 272.086 75.7919 271.397 75.7919L269.753 75.7919L269.753 82.7536ZM280.394 84.1431C279.696 84.1431 279.094 83.9938 278.589 83.6953C278.087 83.3937 277.7 82.9705 277.426 82.4258C277.155 81.878 277.019 81.2363 277.019 80.5007C277.019 79.7744 277.155 79.1342 277.426 78.5803C277.7 78.0263 278.081 77.5939 278.571 77.283C279.063 76.9722 279.639 76.8168 280.297 76.8168C280.697 76.8168 281.085 76.8829 281.461 77.0153C281.836 77.1476 282.173 77.3554 282.472 77.6385C282.77 77.9216 283.006 78.2894 283.178 78.7418C283.35 79.1912 283.436 79.7375 283.436 80.3807L283.436 80.87L277.8 80.87L277.8 79.8359L282.084 79.8359C282.084 79.4728 282.01 79.1512 281.862 78.8711C281.714 78.588 281.507 78.3648 281.239 78.2017C280.974 78.0386 280.663 77.957 280.306 77.957C279.919 77.957 279.58 78.0524 279.291 78.2433C279.005 78.431 278.783 78.6772 278.626 78.9819C278.472 79.2835 278.395 79.6113 278.395 79.9652L278.395 80.7731C278.395 81.247 278.478 81.6502 278.644 81.9826C278.814 82.315 279.049 82.5689 279.351 82.7443C279.652 82.9167 280.005 83.0028 280.408 83.0028C280.67 83.0028 280.908 82.9659 281.124 82.892C281.339 82.8151 281.525 82.7012 281.682 82.5504C281.839 82.3996 281.959 82.2134 282.042 81.9918L283.349 82.2273C283.244 82.612 283.056 82.949 282.785 83.2383C282.518 83.5245 282.181 83.7476 281.774 83.9077C281.371 84.0646 280.911 84.1431 280.394 84.1431ZM290.021 78.6403L288.77 78.8619C288.718 78.7018 288.635 78.5495 288.521 78.4048C288.41 78.2602 288.26 78.1417 288.069 78.0494C287.878 77.957 287.639 77.9109 287.353 77.9109C286.962 77.9109 286.636 77.9986 286.374 78.174C286.113 78.3464 285.982 78.5695 285.982 78.8434C285.982 79.0804 286.07 79.2712 286.245 79.4158C286.421 79.5605 286.704 79.679 287.095 79.7713L288.221 80.0298C288.874 80.1806 289.36 80.413 289.68 80.7269C290 81.0408 290.16 81.4486 290.16 81.9503C290.16 82.375 290.037 82.7536 289.791 83.0859C289.548 83.4152 289.207 83.6738 288.77 83.8615C288.336 84.0492 287.833 84.1431 287.261 84.1431C286.467 84.1431 285.819 83.9738 285.317 83.6353C284.816 83.2937 284.508 82.8089 284.394 82.1811L285.728 81.978C285.811 82.3258 285.982 82.5889 286.241 82.7674C286.499 82.9428 286.836 83.0305 287.252 83.0305C287.704 83.0305 288.066 82.9367 288.336 82.7489C288.607 82.5581 288.743 82.3258 288.743 82.0518C288.743 81.8303 288.66 81.6441 288.493 81.4933C288.33 81.3424 288.079 81.2286 287.741 81.1516L286.541 80.8885C285.879 80.7377 285.39 80.4976 285.073 80.1683C284.759 79.839 284.602 79.422 284.602 78.9173C284.602 78.4987 284.719 78.1325 284.953 77.8185C285.186 77.5046 285.51 77.2599 285.922 77.0845C286.334 76.906 286.807 76.8168 287.339 76.8168C288.106 76.8168 288.709 76.983 289.149 77.3153C289.589 77.6446 289.88 78.0863 290.021 78.6403ZM291.418 84L291.418 76.9091L292.798 76.9091L292.798 84L291.418 84ZM292.115 75.815C291.875 75.815 291.668 75.735 291.496 75.5749C291.327 75.4118 291.242 75.2179 291.242 74.9933C291.242 74.7655 291.327 74.5716 291.496 74.4116C291.668 74.2485 291.875 74.1669 292.115 74.1669C292.355 74.1669 292.559 74.2485 292.729 74.4116C292.901 74.5716 292.987 74.7655 292.987 74.9933C292.987 75.2179 292.901 75.4118 292.729 75.5749C292.559 75.735 292.355 75.815 292.115 75.815ZM297.368 86.8068C296.805 86.8068 296.32 86.733 295.914 86.5852C295.511 86.4375 295.181 86.2421 294.926 85.9989C294.67 85.7558 294.48 85.4896 294.353 85.2003L295.54 84.7109C295.623 84.8464 295.734 84.9895 295.872 85.1403C296.014 85.2942 296.205 85.425 296.445 85.5327C296.688 85.6404 297 85.6942 297.382 85.6942C297.905 85.6942 298.337 85.5665 298.679 85.3111C299.021 85.0587 299.191 84.6555 299.191 84.1016L299.191 82.7074L299.104 82.7074C299.021 82.8582 298.901 83.0259 298.744 83.2106C298.59 83.3952 298.377 83.5553 298.107 83.6907C297.836 83.8261 297.483 83.8938 297.049 83.8938C296.489 83.8938 295.985 83.763 295.535 83.5014C295.089 83.2367 294.735 82.8474 294.473 82.3335C294.215 81.8164 294.086 81.1809 294.086 80.4268C294.086 79.6728 294.213 79.0265 294.469 78.4879C294.727 77.9493 295.081 77.5369 295.531 77.2507C295.98 76.9614 296.489 76.8168 297.059 76.8168C297.499 76.8168 297.854 76.8906 298.125 77.0384C298.396 77.183 298.607 77.3523 298.758 77.5462C298.911 77.7401 299.03 77.9109 299.113 78.0586L299.215 78.0586L299.215 76.9091L300.567 76.9091L300.567 84.157C300.567 84.7663 300.426 85.2665 300.142 85.6573C299.859 86.0482 299.476 86.3375 298.993 86.5252C298.513 86.713 297.971 86.8068 297.368 86.8068ZM297.354 82.7489C297.751 82.7489 298.087 82.6566 298.36 82.4719C298.637 82.2842 298.847 82.0165 298.988 81.6687C299.133 81.3178 299.205 80.8977 299.205 80.4084C299.205 79.9313 299.135 79.5112 298.993 79.1481C298.851 78.7849 298.644 78.5018 298.37 78.2987C298.096 78.0924 297.757 77.9893 297.354 77.9893C296.939 77.9893 296.592 78.0971 296.315 78.3125C296.038 78.5249 295.829 78.8142 295.688 79.1804C295.549 79.5466 295.48 79.956 295.48 80.4084C295.48 80.8731 295.551 81.2809 295.692 81.6317C295.834 81.9826 296.043 82.2565 296.32 82.4535C296.6 82.6505 296.945 82.7489 297.354 82.7489ZM303.539 79.7898L303.539 84L302.158 84L302.158 76.9091L303.483 76.9091L303.483 78.0632L303.571 78.0632C303.734 77.6877 303.99 77.3861 304.337 77.1584C304.688 76.9306 305.13 76.8168 305.662 76.8168C306.145 76.8168 306.569 76.9183 306.932 77.1214C307.295 77.3215 307.577 77.62 307.777 78.017C307.977 78.4141 308.077 78.9049 308.077 79.4897L308.077 84L306.696 84L306.696 79.6559C306.696 79.1419 306.563 78.7403 306.295 78.451C306.027 78.1586 305.659 78.0124 305.191 78.0124C304.871 78.0124 304.587 78.0817 304.337 78.2202C304.091 78.3587 303.896 78.5618 303.751 78.8295C303.609 79.0942 303.539 79.4143 303.539 79.7898Z" fill="#383838"/>
<rect x="588" y="211.807" width="1.69703" height="11.0307" transform="rotate(-45 588 211.807)" fill="#989898"/>
<rect x="589.2" y="219.607" width="1.69703" height="11.0307" transform="rotate(-135 589.2 219.607)" fill="#989898"/>
<defs>
<clipPath id="clip0_2046_12257">
<rect width="138" height="162" fill="white" transform="translate(291 67)"/>
</clipPath>
</defs>
</svg>
